{"title":"West Side Story(1961)MPEG-4[DaScubaDude]","uid":15284929,"size":1713086185,"categoryP":"video","categoryS":"movies","magnet":"?xt=urn:btih:97989fc71db19068d1c6f5fe8fbc69d8ff061651&amp;dn=West+Side+Story%281961%29MPEG-4%5BDaScubaDude%5D&amp;tr=udp%3A%2F%2Ftracker.leechers-paradise.org%3A6969&amp;tr=udp%3A%2F%2Fzer0day.ch%3A1337&amp;tr=udp%3A%2F%2Fopen.demonii.com%3A1337&amp;tr=udp%3A%2F%2Ftracker.coppersurfer.tk%3A6969&amp;tr=udp%3A%2F%2Fexodus.desync.com%3A6969","seeders":2,"leechers":0,"uploader":"dascuba","files":1,"time":1468367258,"description":"West Side Story (1961)\r\nUnrated | 2h 32min | Crime, Drama, Musical | 23 December 1961 (Japan)\r\nTwo youngsters from rival New York City gangs fall in love, but tensions between their respective friends build toward tragedy.\r\nDirectors: Jerome Robbins, Robert Wise\r\nWriters: Ernest Lehman (screenplay), Arthur Laurents (book) | \r\nStars: Natalie Wood, George Chakiris, Richard Beymer |\r\n\r\nGeneral\r\nComplete name                            : West Side StoryWEST_SIDE_STORY_Title1.mp4\r\nFormat                                   : MPEG-4\r\nFormat profile                           : Base Media\r\nCodec ID                                 : isom (isom/iso2/avc1/mp41)\r\nFile size                                : 1.60 GiB\r\nDuration                                 : 2h 33mn\r\nOverall bit rate                         : 1 487 Kbps\r\nMovie name                               : WEST_SIDE_STORY\r\nGenre                                    : Musical\r\nWriting application                      : Lavf54.6.100\r\n\r\nVideo\r\nID                                       : 1\r\nFormat                                   : AVC\r\nFormat/Info                              : Advanced Video Codec\r\nFormat profile                           :   \r\nFormat settings, CABAC                   : No\r\nFormat settings, ReFrames                : 6 frames\r\nFormat settings, GOP                     : M=1, N=60\r\nCodec ID                                 : avc1\r\nCodec ID/Info                            : Advanced Video Coding\r\nDuration                                 : 2h 33mn\r\nBit rate                                 : 1 206 Kbps\r\nWidth                                    : 720 pixels\r\nHeight                                   : 404 pixels\r\nDisplay aspect ratio                     : 16:9\r\nFrame rate mode                          : Constant\r\nFrame rate                               : 29.970 (30000/1001) fps\r\nColor space                              : YUV\r\nChroma subsampling                       : 4:2:0\r\nBit depth                                : 8 bits\r\nScan type                                : Progressive\r\nBits/(Pixel*Frame)                       : 0.138\r\nStream size                              : 1.29 GiB (81%)\r\n\r\nAudio\r\nID                                       : 2\r\nFormat                                   : AAC\r\nFormat/Info                              : Advanced Audio Codec\r\nFormat profile                           : LC\r\nCodec ID                                 : 40\r\nDuration                                 : 2h 33mn\r\nBit rate mode                            : Constant\r\nBit rate                                 : 274 Kbps\r\nChannel(s)                               : 2 channels\r\nChannel(s)_Original                      : 6 channels\r\nChannel positions                        : Front: L C R, Side: L R, LFE\r\nSampling rate                            : 44.1 KHz\r\nFrame rate                               : 43.066 fps (1024 spf)\r\nCompression mode                         : Lossy\r\nStream size                              : 301 MiB (18%)\r\nDefault                                  : Yes\r\nAlternate group                          : 1","torrent":{"xt":"urn:btih:97989fc71db19068d1c6f5fe8fbc69d8ff061651","amp;dn":"West+Side+Story%281961%29MPEG-4%5BDaScubaDude%5D","amp;tr":["udp%3A%2F%2Ftracker.leechers-paradise.org%3A6969","udp%3A%2F%2Fzer0day.ch%3A1337","udp%3A%2F%2Fopen.demonii.com%3A1337","udp%3A%2F%2Ftracker.coppersurfer.tk%3A6969","udp%3A%2F%2Fexodus.desync.com%3A6969"],"infoHash":"97989fc71db19068d1c6f5fe8fbc69d8ff061651","infoHashBuffer":{"type":"Buffer","data":[151,152,159,199,29,177,144,104,209,198,245,254,143,188,105,216,255,6,22,81]},"announce":[],"urlList":[]}}